<?xml version="1.0" encoding="utf-8"?>
<!-- Generator: Adobe Illustrator 26.0.3, SVG Export Plug-In . SVG Version: 6.00 Build 0)  -->
<svg version="1.1" id="Ebene_1" xmlns="http://www.w3.org/2000/svg" xmlns:xlink="http://www.w3.org/1999/xlink" x="0px" y="0px"
	 width="226.7695px" height="113.3896px" viewBox="0 0 226.7695 113.3896" enable-background="new 0 0 226.7695 113.3896"
	 xml:space="preserve">
<g>
	<path d="M29.8862,62.5283v-0.9472c0-2.5391-1.541-4.5889-3.7212-4.5889c-3.207,0-5.165,4.1299-5.165,7.7402
		c0,3.3975,2.0322,6.3965,4.5293,6.3965c1.959,0,3.4277-1.4072,4.4067-3.3984l-0.4399-0.3955
		c-1.2251,1.3769-1.8618,1.8037-2.7671,1.8037c-2.229,0-3.8677-2.6631-3.8677-5.3242c0-0.4278,0-0.8565,0.0479-1.2862H29.8862z
		 M23.0322,61.8262c0.2451-1.7149,1.2481-3.8252,2.7178-3.8252c1.1992,0,2.104,1.0703,2.104,2.5693
		c0,0.5205-0.3657,1.1016-0.6851,1.1016L23.0322,61.8262z"/>
	<path d="M44.2085,51.6973c0-1.4698,0.0478-2.9688,0.0478-4.4375c0-0.1836,0-0.4903-0.1709-0.4903
		c-0.0732,0-0.2451,0.0928-0.3662,0.1534l-1.788,0.9179c-0.4649,0.2139-1.0777,0.459-1.0777,0.7344
		c0,0.2451,0.1968,0.3975,0.564,0.582c0.7588,0.3672,0.9297,0.5811,0.9297,1.7139v6.793c-0.4649-0.3975-1.836-0.6729-2.4478-0.6729
		c-3.4033,0-5.8022,3.7324-5.8022,7.8037c0,3.2432,1.7871,6.334,4.5293,6.334c1.4687,0,2.6928-1.2559,3.77-2.3574v1.6836
		c0,0.0908,0.0249,0.581,0.0976,0.581c0.5884,0,2.8643-1.04,3.5254-1.3769v-0.5821c0-0.1533-0.0732-0.3056-0.1474-0.3056
		c-0.0479,0-0.562,0.3056-0.9536,0.3056c-0.417,0-0.71-0.3056-0.71-1.2539V51.6973z M42.3472,67.7012
		c-0.8081,1.1015-1.6641,1.6504-2.8648,1.6504c-2.2031,0-3.354-3.2725-3.354-5.5987c0-2.5097,0.9307-5.7519,3.3301-5.7519
		c1.6157,0,2.8887,1.5595,2.8887,3.5498V67.7012z"/>
	<path d="M51.5225,60.3564c0-1.6816-0.5879-1.8359-1.5923-1.8359c-0.1216,0-0.3667-0.0312-0.3667-0.1221v-0.5205
		c0-0.1533,0.0239-0.1826,0.1719-0.2148c0.6362-0.0908,1.4189-0.2442,2.081-0.3965c0.6602-0.1533,1.1992-0.2754,1.2969-0.2754
		c0.2451,0,0.3183,0.2754,0.3183,0.6719c0,0.3389-0.0493,0.7978-0.0493,1.2256v7.1289c0,2.081,0.6612,3.122,2.4483,3.122
		c1.0527,0,2.0317-0.7968,2.7417-1.6533v-7.1299c0-1.6816-0.586-1.8359-1.5909-1.8359c-0.123,0-0.3671-0.0312-0.3671-0.1221v-0.5205
		c0-0.1533,0.0239-0.1826,0.1709-0.2148c0.6372-0.0908,1.4213-0.2442,2.081-0.3965c0.6611-0.1533,1.1992-0.2754,1.2974-0.2754
		c0.2456,0,0.3188,0.2754,0.3188,0.6719c0,0.3389-0.0498,0.7978-0.0498,1.2256v8.0166c0,1.4687,0,2.0801,0.417,2.0801
		c0.5386,0,1.0767-0.2149,1.1509-0.2149c0.0488,0,0.0727,0.1533,0.0727,0.3369c0,0.2774-0.0488,0.4278-0.0976,0.461
		c-0.5874,0.2129-3.2564,1.5605-3.355,1.5605c-0.0723,0-0.1211-0.3984-0.1211-0.583c0-0.2441,0.0488-0.5498,0.0488-0.9482v-1.1309
		c-0.9321,1.1924-2.2041,2.6621-3.624,2.6621c-1.958,0-3.4018-1.2568-3.4018-4.2236V60.3564z"/>
	<path fill="#5F5E5E" d="M70.4683,57.9404c-1.2481,0.6104-2.4971,1.2539-3.6963,2.0176l0.3423,1.0108
		c0.9799-0.4903,1.9096-1.2549,3.0849-1.6211L66.7461,74.25c-0.6602,2.8154-1.0518,3.3066-2.6919,3.3066l-0.1709,1.2217
		c1.273-0.0293,2.251-0.1211,3.207-0.1533c0.979,0,1.9576,0.0615,3.2559,0.1533l0.2441-1.2217h-0.832
		c-0.7583,0-1.2734-0.4003-1.2734-0.9502c0-1.2548,0.4423-2.7246,0.7353-3.9492c0.3911-1.5908,0.4888-1.834,0.6851-1.834
		c0.0737,0,0.4887,0.2129,1.6899,0.2129c3.793,0,7.6118-5.4472,7.6118-10.0371c0-2.6924-0.562-4.4668-2.6919-4.4668
		c-0.9301,0-2.5952,0.336-3.5249,0.6426l0.4888-1.9893c0.0493-0.2138,0.0742-0.4287,0.0742-0.5205
		c0-0.5507-0.6372-0.6123-1.0029-0.6123c-0.6382,0-1.1524,0-1.2993,0.6426L70.4683,57.9404z M72.647,58.46
		c0.4892-0.3057,1.0029-0.3985,1.518-0.3985c1.4932,0,2.3501,1.2246,2.3501,3.336c0,2.6914-1.6411,8.415-4.333,8.415
		c-1.0039,0-1.5669-0.6436-1.5669-1.8672c0-0.9482,0.147-1.4697,0.3179-2.1113L72.647,58.46z"/>
	<path fill="#5F5E5E" d="M89.71,56.5313c-3.6963,0-6.438,4.4062-6.438,8.8447c0,3.1211,1.542,5.6601,4.186,5.6601
		c3.6958,0,6.438-4.4062,6.438-8.8447C93.896,59.0713,92.354,56.5313,89.71,56.5313 M89.7837,57.7559
		c1.102,0,1.4194,1.2548,1.4194,2.6933c0,2.2334-1.1504,9.3633-3.6972,9.3633c-1.125,0-1.542-0.9795-1.542-2.6943
		C85.9639,65.2822,87.1147,57.7559,89.7837,57.7559"/>
	<path fill="#5F5E5E" d="M104.3989,56.5313c-3.6958,0-6.4389,4.4062-6.4389,8.8447c0,3.1211,1.542,5.6601,4.187,5.6601
		c3.6968,0,6.4389-4.4062,6.4389-8.8447C108.5859,59.0713,107.043,56.5313,104.3989,56.5313 M104.4731,57.7559
		c1.1021,0,1.419,1.2548,1.419,2.6933c0,2.2334-1.1489,9.3633-3.6973,9.3633c-1.125,0-1.542-0.9795-1.542-2.6943
		C100.6528,65.2822,101.8042,57.7559,104.4731,57.7559"/>
	<path fill="#5F5E5E" d="M114.7793,47.7803c1.7402-0.2149,3.4775-0.46,5.1426-1.1631l0.2676,0.3057
		c-0.6104,2.0195-4.9688,19.6757-4.9688,20.7783c0,0.3662,0.1963,0.7353,0.4893,0.7353c0.6845,0,1.666-1.7158,2.1289-2.2656
		l0.5654,0.6416c-0.957,1.4707-2.793,4.2246-4.5313,4.2246c-0.7832,0-1.4931-0.3994-1.4931-1.4697
		c0-2.0498,4.3584-18.1153,4.3584-19.707c0-1.0401-1.5654-1.0704-2.1055-1.0704L114.7793,47.7803z"/>
	<path fill="#E63329" d="M124.2813,65.6016c1.1367,0,1.6855,1.2734,1.6855,2.498c0,1.8106-1.0176,3.377-2.6641,3.377
		c-1.1367,0-1.5664-1.0752-1.5664-2.4463C121.7363,67.1191,122.6768,65.6016,124.2813,65.6016"/>
	<path d="M139.2539,67.3643c-1.1006,1.958-2.4971,3.7646-4.5293,3.7646c-2.9365,0-4.7226-3.0908-4.7226-6.6406
		c0-3.8858,2.4218-7.4971,5.6298-7.4971c1.1006,0,3.2305,0.7041,3.2305,2.5391c0,0.7353-0.4893,1.1943-1.0283,1.1943
		c-1.1016,0-1.3701-2.7236-2.8887-2.7236c-1.9336,0-3.084,2.8437-3.084,4.957c0,2.7236,1.2002,6.1816,3.6973,6.1816
		c1.5166,0,2.375-1.1015,3.3291-2.4492L139.2539,67.3643z"/>
	<path d="M146.7461,59.4697c1.1514-1.1318,2.4473-2.4785,4.0137-2.4785c2.1298,0,3.0371,1.4981,3.0371,4.0693v7.4678
		c0,1.3145,0.8066,1.3145,1.6162,1.3145c0.0488,0,0.0957,0.0615,0.0957,0.2148v0.5508c0,0.0625-0.0469,0.0898-0.1221,0.0898
		c-0.9785,0-1.6152-0.1523-2.4238-0.1523c-0.8818,0-1.7373,0.1523-2.6191,0.1523c-0.1709,0-0.1709-0.5488-0.1709-0.6728
		c0-0.0908,0.0986-0.1826,0.2441-0.1826c0.3906,0,1.5185,0,1.5185-0.919v-7.1894c0-1.8975-0.4667-2.9688-2.1787-2.9688
		c-1.0293,0-2.3027,0.7647-3.0107,1.6524v7.956c0,0.6748,0,1.4688,1.6875,1.4688c0.0508,0,0.0508,0.1826,0.0508,0.4277
		c0,0.2754-0.0254,0.4277-0.0742,0.4277c-0.9561,0-2.0323-0.1523-2.5469-0.1523c-0.8809,0-1.7637,0.1523-2.6426,0.1523
		c-0.1719,0-0.2207-0.0898-0.2207-0.2128V70.21c0-0.3672,0.0732-0.3672,0.415-0.3672c1.0782,0,1.4688-0.1836,1.4688-1.6211V51.6963
		c0-1.9268,0-2.0498-0.9541-2.54c-0.3652-0.1827-0.709-0.336-0.709-0.5811c0-0.2451,0.2441-0.3369,1.2481-0.8262l1.7861-0.8252
		c0.0488-0.0312,0.2939-0.1533,0.3681-0.1533c0.1719,0,0.1719,0.3047,0.1719,0.4893c0,1.4687-0.0488,2.9677-0.0488,4.4365V59.4697z"
		/>
</g>
<polygon fill="#E63329" points="132.8682,25.8569 126.4707,52.0449 128.4668,52.0449 134.8008,25.8569 "/>
<polygon fill="#E63329" points="176.9717,25.8569 170.6025,52.0449 175.6807,52.0449 182.0322,25.8569 "/>
<polygon fill="#E63329" points="168.2266,25.8569 161.8965,52.0449 164.8916,52.0449 171.2422,25.8569 "/>
<g>
	<path fill="#E63329" d="M206.3887,84.377c-0.3037,0-0.544,0.2402-0.544,0.5439c0,0.2959,0.2403,0.5352,0.5362,0.5352
		c0.3037,0,0.5439-0.2393,0.5439-0.5352S206.6846,84.377,206.3887,84.377 M204.252,81.585l0.0156-1.0879h-0.7588l-0.0234,1.0879
		h-0.6006l-0.0078,0.623h0.5839l-0.0478,1.6807c-0.0166,0.3847-0.0166,0.3926-0.0166,0.4726c0,0.3594,0.0322,0.5196,0.1201,0.6797
		c0.1602,0.2705,0.4727,0.4229,0.8789,0.4229c0.2647,0,0.4961-0.0479,0.7686-0.1524l0.0078-0.6621
		c-0.2002,0.0879-0.3838,0.1279-0.5596,0.1279c-0.3125,0-0.4082-0.1279-0.4082-0.5683c0-0.0645,0-0.0645,0.0078-0.3203
		l0.0244-1.6807h0.8399l0.0078-0.623H204.252z M201.7246,79.9609c-0.3037,0-0.5117,0.208-0.5117,0.5108
		c0,0.2803,0.2002,0.4804,0.4961,0.4804s0.4951-0.2001,0.4951-0.4882C202.2041,80.1689,202.0049,79.9609,201.7246,79.9609
		 M201.3086,85.3838h0.7988V81.585h-0.7988V85.3838z M197.8613,83.0732c0.128-0.6494,0.4239-0.9609,0.9112-0.9609
		c0.4961,0,0.7841,0.3193,0.8564,0.9609H197.8613z M200.4287,83.6563c0.0078-0.0723,0.0078-0.1446,0.0078-0.168
		c0-1.2324-0.6396-2.0069-1.6396-2.0069c-1.0557,0-1.752,0.8145-1.752,2.0469c0,1.1846,0.7041,1.96,1.7764,1.96
		c0.7754,0,1.3193-0.3916,1.5273-1.0957l-0.7041-0.0479c-0.1679,0.3448-0.416,0.4961-0.7998,0.4961
		c-0.624,0-0.9756-0.416-1.0078-1.1845H200.4287z M193.4375,85.3838h0.7832v-5.3672h-0.7832V85.3838z M195.7246,81.585
		l-1.4873,1.7509l1.4951,2.0479h1.0645l-1.624-2.0635l1.5039-1.7353H195.7246z M190.7178,85.2813
		c0.7285,0,1.1357,0.2001,1.1357,0.5595c0,0.3438-0.3916,0.5606-1.0312,0.5606c-0.6973,0-1.1377-0.2168-1.1377-0.5684
		c0-0.3437,0.3847-0.5517,1.0322-0.5517H190.7178z M190.79,82.1201c0.4161,0,0.712,0.2959,0.712,0.7041
		c0,0.4082-0.2881,0.6719-0.7364,0.6719c-0.4326,0-0.7207-0.2637-0.7207-0.6641C190.0449,82.4082,190.3408,82.1201,190.79,82.1201z
		 M192.709,81.585l-1.208,0.0322c-0.2637-0.0801-0.4405-0.1045-0.6641-0.1045c-0.9121,0-1.4951,0.5195-1.4951,1.3271
		c0,0.5284,0.2158,0.8643,0.6953,1.0879c-0.4873,0.1846-0.6709,0.3536-0.6709,0.6094c0,0.2002,0.1201,0.3359,0.416,0.4483
		c-0.5439,0.1914-0.7842,0.4638-0.7842,0.9121c0,0.6718,0.7032,1.1025,1.8077,1.1025c1.1357,0,1.8076-0.4551,1.8076-1.2227
		c0-0.3847-0.1768-0.7119-0.4795-0.8798c-0.2402-0.1368-0.4639-0.1846-1.2002-0.2569c-0.5918-0.0635-0.5918-0.0635-0.6729-0.0957
		c-0.0878-0.0332-0.1279-0.081-0.1279-0.1533c0-0.1191,0.168-0.2393,0.4004-0.2715c0.7607-0.1123,0.8486-0.1279,1.1123-0.2558
		c0.3447-0.1602,0.543-0.5127,0.543-0.9444c0-0.2959-0.1035-0.6084-0.2549-0.7597h0.7754V81.585z M187.8535,79.9609
		c-0.3037,0-0.5117,0.208-0.5117,0.5108c0,0.2803,0.2002,0.4804,0.4961,0.4804c0.2949,0,0.4951-0.2001,0.4951-0.4882
		C188.333,80.1689,188.1328,79.9609,187.8535,79.9609 M187.4375,85.3838h0.7998V81.585h-0.7998V85.3838z M185.749,81.585
		l0.0156-1.0879h-0.7587l-0.0245,1.0879h-0.5996l-0.0078,0.623h0.584l-0.0478,1.6807c-0.0166,0.3847-0.0166,0.3926-0.0166,0.4726
		c0,0.3594,0.0322,0.5196,0.1201,0.6797c0.1601,0.2705,0.4726,0.4229,0.8789,0.4229c0.2646,0,0.4961-0.0479,0.7685-0.1524
		l0.0078-0.6621c-0.2001,0.0879-0.3837,0.1279-0.5595,0.1279c-0.3125,0-0.4082-0.1279-0.4082-0.5683
		c0-0.0645,0-0.0645,0.0078-0.3203l0.0234-1.6807h0.8408l0.0079-0.623H185.749z M182.8057,85.3838h0.7988v-5.3672h-0.7988V85.3838z
		 M180.9268,83.7529c0,0.3282-0.0332,0.5362-0.1045,0.6797c-0.128,0.2569-0.4082,0.416-0.7364,0.416
		c-0.3838,0-0.6484-0.2236-0.6484-0.5517c0-0.4561,0.3848-0.6719,1.4893-0.8408V83.7529z M179.5176,82.6563
		c0.0722-0.3526,0.3125-0.5206,0.7441-0.5206c0.4805,0,0.6651,0.1846,0.6651,0.6719v0.1045
		c-0.8487,0.1524-1.0733,0.2002-1.4248,0.3359c-0.5684,0.2159-0.8711,0.6094-0.8711,1.1368c0,0.6718,0.4951,1.0869,1.2949,1.0869
		c0.5205,0,0.8799-0.1836,1.0879-0.5586c0,0.208,0.0166,0.2949,0.0644,0.4707h0.7266c-0.0947-0.2236-0.1192-0.4072-0.1192-0.919
		v-1.4804c0-0.4805-0.0234-0.6807-0.1201-0.8965c-0.1591-0.375-0.6152-0.5908-1.2558-0.5908c-0.4639,0-0.8721,0.1201-1.1358,0.3349
		c-0.248,0.1924-0.3681,0.4317-0.416,0.8243H179.5176z M174.6064,80.0166v5.3672h0.7832v-2.0156c0-0.336,0.0401-0.5606,0.128-0.7364
		c0.1445-0.2714,0.416-0.4394,0.7285-0.4394c0.2715,0,0.4883,0.1191,0.5996,0.3359c0.0811,0.1602,0.1133,0.3682,0.1133,0.7998
		v2.0557h0.7832v-2.1836c0-0.6807-0.0401-0.9277-0.1768-1.1602c-0.1914-0.3349-0.6064-0.5429-1.0791-0.5429
		c-0.456,0-0.8164,0.1679-1.0967,0.5185v-1.999H174.6064z M170.3672,80.0166v5.3672h0.7822v-2.0156
		c0-0.336,0.0401-0.5606,0.1289-0.7364c0.1436-0.2714,0.416-0.4394,0.7276-0.4394c0.2724,0,0.4882,0.1191,0.5996,0.3359
		c0.081,0.1602,0.1133,0.3682,0.1133,0.7998v2.0557h0.7832v-2.1836c0-0.6807-0.0401-0.9277-0.1758-1.1602
		c-0.1924-0.3349-0.6074-0.5429-1.0801-0.5429c-0.4561,0-0.8164,0.1679-1.0967,0.5185v-1.999H170.3672z M169.501,82.8398
		c-0.1045-0.8798-0.624-1.3584-1.4717-1.3584c-1.0566,0-1.7354,0.7911-1.7354,2.0157c0,1.1924,0.6866,1.9912,1.7266,1.9912
		c0.8721,0,1.4483-0.543,1.5039-1.4317h-0.7676c-0.0634,0.5528-0.288,0.792-0.7363,0.792c-0.5752,0-0.9199-0.5039-0.9199-1.3515
		c0-0.8408,0.3525-1.377,0.9121-1.377c0.416,0,0.6318,0.2158,0.7119,0.7197H169.501z M164.6699,83.7529
		c0,0.3282-0.0322,0.5362-0.1045,0.6797c-0.1279,0.2569-0.4082,0.416-0.7363,0.416c-0.3838,0-0.6484-0.2236-0.6484-0.5517
		c0-0.4561,0.3838-0.6719,1.4892-0.8408V83.7529z M163.2607,82.6563c0.0723-0.3526,0.3125-0.5206,0.7442-0.5206
		c0.4814,0,0.665,0.1846,0.665,0.6719v0.1045c-0.8486,0.1524-1.0732,0.2002-1.4248,0.3359
		c-0.5683,0.2159-0.8711,0.6094-0.8711,1.1368c0,0.6718,0.4951,1.0869,1.2949,1.0869c0.5196,0,0.8809-0.1836,1.0889-0.5586
		c0,0.208,0.0156,0.2949,0.0635,0.4707h0.7275c-0.0957-0.2236-0.1201-0.4072-0.1201-0.919v-1.4804
		c0-0.4805-0.0234-0.6807-0.1201-0.8965c-0.1602-0.375-0.6143-0.5908-1.2559-0.5908c-0.4638,0-0.872,0.1201-1.1357,0.3349
		c-0.2481,0.1924-0.3682,0.4317-0.415,0.8243H163.2607z M157.3975,80.0488v5.335h0.7832v-4.0723l2.3769,4.0723h0.8555v-5.335
		h-0.7832v4.0801l-2.3447-4.0801H157.3975z M152.5342,82.1602c0.5361,0,0.8721,0.5039,0.8721,1.3203s-0.3448,1.3281-0.8965,1.3281
		c-0.544,0-0.8809-0.4951-0.8809-1.3037C151.6289,82.6641,151.9736,82.1602,152.5342,82.1602 M154.1729,80.0166h-0.7833v2.0391
		c-0.288-0.4063-0.5595-0.5586-1.0234-0.5586c-0.9043,0-1.5439,0.8388-1.5439,2.0244c0,1.1758,0.624,1.9502,1.5673,1.9502
		c0.504,0,0.8165-0.1836,1.0723-0.6231c-0.0078,0.0801-0.0078,0.1202-0.0078,0.168c0,0.1201,0.0078,0.207,0.0479,0.3672h0.7431
		c-0.0566-0.2549-0.0722-0.5029-0.0722-1.167V80.0166z M146.75,81.585c0.1035,0.3671,0.1035,0.3994,0.1035,1.3271v2.4717h0.7832
		v-2.0234c0-0.3448,0.0401-0.5684,0.1289-0.7364c0.1446-0.2724,0.416-0.4316,0.7285-0.4316c0.2715,0,0.4795,0.1113,0.584,0.3271
		c0.0801,0.1602,0.1035,0.3448,0.1035,0.8086v2.0557h0.7832v-2.1836c0-0.7041-0.0244-0.8721-0.1513-1.1201
		c-0.1836-0.3594-0.5918-0.583-1.0791-0.583c-0.4961,0-0.8809,0.2002-1.1455,0.6064c-0.0069-0.2392-0.0235-0.3672-0.0791-0.5185
		H146.75z M142.6055,81.585v2.2636c0,0.4883,0.0566,0.8008,0.1767,1.0166c0.2158,0.3828,0.6465,0.6065,1.1602,0.6065
		c0.4795,0,0.7832-0.168,1.039-0.5586c0.0088,0.1836,0.0401,0.3594,0.0801,0.4707h0.751c-0.0957-0.3106-0.0957-0.3106-0.0957-1.167
		V81.585h-0.7832v2.0879c0,0.3281-0.04,0.5361-0.1279,0.6962c-0.1436,0.2637-0.3916,0.4082-0.7041,0.4082
		c-0.2393,0-0.4473-0.0878-0.5674-0.248c-0.0977-0.1279-0.1455-0.3525-0.1455-0.7041V81.585H142.6055z M138.9424,81.585
		l0.0156-1.0879h-0.7598l-0.0244,1.0879h-0.5986l-0.0078,0.623h0.583l-0.0488,1.6807c-0.0147,0.3847-0.0147,0.3926-0.0147,0.4726
		c0,0.3594,0.0313,0.5196,0.1192,0.6797c0.1601,0.2705,0.4716,0.4229,0.8798,0.4229c0.2637,0,0.4961-0.0479,0.7676-0.1524
		l0.0088-0.6621c-0.2002,0.0879-0.3848,0.1279-0.5605,0.1279c-0.3116,0-0.4082-0.1279-0.4082-0.5683
		c0-0.0645,0-0.0645,0.0087-0.3203l0.0235-1.6807h0.8398l0.0078-0.623H138.9424z M134.8945,81.585
		c0.0391,0.3349,0.0469,0.4072,0.0469,1.2314v2.5674h0.791v-1.7344c0-0.4258,0.0401-0.7139,0.1367-0.9297
		c0.1436-0.3359,0.3838-0.5195,0.6875-0.5195c0.1846,0,0.336,0.0478,0.5528,0.168v-0.7911c-0.1602-0.0556-0.2647-0.08-0.377-0.08
		c-0.4316,0-0.7597,0.2802-1.039,0.8867c0.0078-0.0957,0.0078-0.1602,0.0078-0.2158c0-0.2002-0.0244-0.4004-0.0567-0.583H134.8945z
		 M131.502,83.0732c0.1279-0.6494,0.4238-0.9609,0.9121-0.9609c0.4961,0,0.7832,0.3193,0.8554,0.9609H131.502z M134.0703,83.6563
		c0.0078-0.0723,0.0078-0.1446,0.0078-0.168c0-1.2324-0.6406-2.0069-1.6406-2.0069c-1.0557,0-1.752,0.8145-1.752,2.0469
		c0,1.1846,0.7051,1.96,1.7764,1.96c0.7764,0,1.3194-0.3916,1.5283-1.0957l-0.7041-0.0479
		c-0.1689,0.3448-0.416,0.4961-0.7998,0.4961c-0.625,0-0.9765-0.416-1.0078-1.1845H134.0703z M124.0459,80.0488l1.3193,5.3516
		h0.9209l0.9522-3.8008l0.959,3.8008h0.9199l1.3281-5.3516h-0.7598l-1.039,4.3438l-1.041-4.3438h-0.711l-1.0488,4.3438
		l-1.0234-4.3438H124.0459z M118.1895,81.585c0.1044,0.3671,0.1044,0.3994,0.1044,1.3271v2.4717h0.7823v-2.0234
		c0-0.3448,0.041-0.5684,0.1289-0.7364c0.1445-0.2724,0.417-0.4316,0.7285-0.4316c0.2725,0,0.4805,0.1113,0.584,0.3271
		c0.0801,0.1602,0.1045,0.3448,0.1045,0.8086v2.0557h0.7822v-2.1836c0-0.7041-0.0234-0.8721-0.1504-1.1201
		c-0.1836-0.3594-0.5918-0.583-1.0801-0.583c-0.4961,0-0.8799,0.2002-1.1445,0.6064c-0.0078-0.2392-0.0244-0.3672-0.0801-0.5185
		H118.1895z M115.6465,82.1201c0.5674,0,0.959,0.5596,0.959,1.3682c0,0.8086-0.3916,1.3603-0.959,1.3603
		c-0.584,0-0.9697-0.5439-0.9697-1.3769C114.6768,82.6719,115.0781,82.1201,115.6465,82.1201 M115.6465,81.4814
		c-1.0254,0-1.7764,0.8389-1.7764,1.9747c0,1.2011,0.7276,2.0322,1.7764,2.0322c1.0312,0,1.7666-0.8311,1.7666-2
		C117.4131,82.3203,116.6777,81.4814,115.6465,81.4814 M110.0049,81.585l1.352,3.831h0.8721l1.3521-3.831h-0.8243l-0.9599,2.9443
		l-0.9678-2.9443H110.0049z M105.7729,85.2813c0.7281,0,1.1368,0.2001,1.1368,0.5595c0,0.3438-0.3926,0.5606-1.0327,0.5606
		c-0.6963,0-1.1363-0.2168-1.1363-0.5684C104.7407,85.4893,105.125,85.2813,105.7729,85.2813z M105.8447,82.1201
		c0.416,0,0.7134,0.2959,0.7134,0.7041c0,0.4082-0.2891,0.6719-0.7373,0.6719c-0.4321,0-0.7197-0.2637-0.7197-0.6641
		C105.1011,82.4082,105.397,82.1201,105.8447,82.1201z M107.7651,81.585l-1.208,0.0322c-0.2641-0.0801-0.4404-0.1045-0.664-0.1045
		c-0.9121,0-1.4952,0.5195-1.4952,1.3271c0,0.5284,0.2149,0.8643,0.6949,1.0879c-0.4878,0.1846-0.6709,0.3536-0.6709,0.6094
		c0,0.2002,0.1191,0.3359,0.415,0.4483c-0.5439,0.1914-0.7832,0.4638-0.7832,0.9121c0,0.6718,0.7031,1.1025,1.8071,1.1025
		c1.1372,0,1.8081-0.4551,1.8081-1.2227c0-0.3847-0.1762-0.7119-0.4799-0.8798c-0.2393-0.1368-0.4629-0.1846-1.2002-0.2569
		c-0.5918-0.0635-0.5918-0.0635-0.6719-0.0957c-0.0879-0.0332-0.1279-0.081-0.1279-0.1533c0-0.1191,0.1679-0.2393,0.3999-0.2715
		c0.7602-0.1123,0.8491-0.1279,1.1118-0.2558c0.3442-0.1602,0.5444-0.5127,0.5444-0.9444c0-0.2959-0.104-0.6084-0.2563-0.7597
		h0.7763V81.585z M100.1099,81.585c0.104,0.3671,0.104,0.3994,0.104,1.3271v2.4717h0.7832v-2.0234
		c0-0.3448,0.04-0.5684,0.1279-0.7364c0.144-0.2724,0.416-0.4316,0.728-0.4316c0.272,0,0.481,0.1113,0.585,0.3271
		c0.0801,0.1602,0.104,0.3448,0.104,0.8086v2.0557h0.7827v-2.1836c0-0.7041-0.0239-0.8721-0.1518-1.1201
		c-0.1841-0.3594-0.5909-0.583-1.0801-0.583c-0.4961,0-0.8799,0.2002-1.1441,0.6064c-0.0078-0.2392-0.0239-0.3672-0.0796-0.5185
		H100.1099z M95.9658,81.585v2.2636c0,0.4883,0.0562,0.8008,0.1753,1.0166c0.2158,0.3828,0.648,0.6065,1.1597,0.6065
		c0.48,0,0.7851-0.168,1.041-0.5586c0.0083,0.1836,0.04,0.3594,0.0801,0.4707h0.751c-0.0962-0.3106-0.0962-0.3106-0.0962-1.167
		V81.585h-0.7828v2.0879c0,0.3281-0.04,0.5361-0.1279,0.6962c-0.144,0.2637-0.3931,0.4082-0.7051,0.4082
		c-0.2402,0-0.4482-0.0878-0.5678-0.248c-0.0962-0.1279-0.1441-0.3525-0.1441-0.7041V81.585H95.9658z M93.2207,82.1602
		c0.5371,0,0.8731,0.5039,0.8731,1.3203s-0.3438,1.3281-0.897,1.3281c-0.544,0-0.8799-0.4951-0.8799-1.3037
		C92.3169,82.6641,92.6611,82.1602,93.2207,82.1602 M94.8608,80.0166h-0.7827v2.0391c-0.2881-0.4063-0.561-0.5586-1.0254-0.5586
		c-0.9038,0-1.5429,0.8388-1.5429,2.0244c0,1.1758,0.623,1.9502,1.5669,1.9502c0.5044,0,0.8173-0.1836,1.0732-0.6231
		c-0.0078,0.0801-0.0078,0.1202-0.0078,0.168c0,0.1201,0.0078,0.207,0.0478,0.3672h0.7432
		c-0.0561-0.2549-0.0723-0.5029-0.0723-1.167V80.0166z M89.8218,85.3838h0.7993v-5.3672h-0.7993V85.3838z M88.3008,79.9609
		c-0.3028,0-0.5108,0.208-0.5108,0.5108c0,0.2803,0.1997,0.4804,0.4947,0.4804c0.2964,0,0.4961-0.2001,0.4961-0.4882
		C88.7808,80.1689,88.5811,79.9609,88.3008,79.9609 M87.8857,85.3838h0.7994V81.585h-0.7994V85.3838z M84.229,84.7051v-1.7696
		h0.5117c0.521,0,0.7134,0.0166,0.9292,0.0967c0.312,0.1201,0.4961,0.4082,0.4961,0.793c0,0.3594-0.1523,0.6475-0.4082,0.7598
		c-0.208,0.0957-0.4321,0.1201-1.0327,0.1201H84.229z M84.229,82.2734v-1.5459h0.4238c0.4893,0,0.689,0.0245,0.8731,0.0967
		c0.2402,0.1035,0.3921,0.3516,0.3921,0.6563s-0.1363,0.5527-0.3599,0.664c-0.1924,0.0967-0.4243,0.1289-0.8574,0.1289H84.229z
		 M83.4219,80.0488v5.335h1.103c0.9292,0,1.1929-0.0234,1.5532-0.1358c0.5669-0.1835,0.9429-0.7265,0.9429-1.375
		c0-0.7207-0.376-1.1533-1.167-1.3359c0.6069-0.1924,0.8789-0.5439,0.8789-1.1533c0-0.5762-0.312-1.0225-0.8232-1.207
		c-0.2959-0.0957-0.5996-0.128-1.273-0.128H83.4219z"/>
</g>
</svg>
