<?xml version="1.0" encoding="utf-8"?>
<!-- Generator: Adobe Illustrator 26.0.3, SVG Export Plug-In . SVG Version: 6.00 Build 0)  -->
<svg version="1.1" id="Ebene_1" xmlns="http://www.w3.org/2000/svg" xmlns:xlink="http://www.w3.org/1999/xlink" x="0px" y="0px"
	 width="226.7695px" height="113.3896px" viewBox="0 0 226.7695 113.3896" enable-background="new 0 0 226.7695 113.3896"
	 xml:space="preserve">
<path d="M29.8862,62.7979v-0.9483c0-2.5391-1.541-4.5889-3.7212-4.5889c-3.207,0-5.165,4.1299-5.165,7.7413
	c0,3.3974,2.0322,6.3964,4.5293,6.3964c1.959,0,3.4277-1.4072,4.4067-3.3984l-0.4399-0.3965
	c-1.2251,1.3779-1.8618,1.8047-2.7671,1.8047c-2.229,0-3.8677-2.6631-3.8677-5.3242c0-0.4277,0-0.8574,0.0479-1.2861H29.8862z
	 M23.0322,62.0947c0.2451-1.7138,1.2481-3.8252,2.7178-3.8252c1.1992,0,2.104,1.0713,2.104,2.5703
	c0,0.5206-0.3657,1.1016-0.6851,1.1016L23.0322,62.0947z"/>
<path d="M44.2085,51.9658c0-1.4687,0.0478-2.9678,0.0478-4.4365c0-0.1836,0-0.4902-0.1709-0.4902
	c-0.0732,0-0.2451,0.0918-0.3662,0.1533l-1.788,0.918c-0.4649,0.2138-1.0777,0.4589-1.0777,0.7343
	c0,0.2442,0.1968,0.3975,0.564,0.5821c0.7588,0.3662,0.9297,0.58,0.9297,1.7138v6.793c-0.4649-0.3975-1.836-0.6729-2.4478-0.6729
	c-3.4033,0-5.8022,3.7325-5.8022,7.8038c0,3.2431,1.7871,6.3339,4.5293,6.3339c1.4687,0,2.6928-1.2558,3.77-2.3584v1.6846
	c0,0.0908,0.0249,0.5811,0.0976,0.5811c0.5884,0,2.8643-1.0401,3.5254-1.377v-0.582c0-0.1533-0.0732-0.3067-0.1474-0.3067
	c-0.0479,0-0.562,0.3067-0.9536,0.3067c-0.417,0-0.71-0.3067-0.71-1.2539V51.9658z M42.3472,67.9707
	c-0.8081,1.1016-1.6641,1.6504-2.8648,1.6504c-2.2031,0-3.354-3.2725-3.354-5.5986c0-2.5098,0.9307-5.752,3.3301-5.752
	c1.6157,0,2.8887,1.5596,2.8887,3.5498V67.9707z"/>
<path d="M51.5225,60.626c0-1.6826-0.5879-1.836-1.5923-1.836c-0.1216,0-0.3667-0.0312-0.3667-0.122v-0.5215
	c0-0.1524,0.0239-0.1817,0.1719-0.2139c0.6362-0.0908,1.4189-0.2451,2.081-0.3965c0.6602-0.1533,1.1992-0.2754,1.2969-0.2754
	c0.2451,0,0.3183,0.2754,0.3183,0.6719c0,0.3379-0.0493,0.7969-0.0493,1.2256v7.1289c0,2.0811,0.6612,3.1211,2.4483,3.1211
	c1.0527,0,2.0317-0.7969,2.7417-1.6523V60.626c0-1.6826-0.586-1.836-1.5909-1.836c-0.123,0-0.3671-0.0312-0.3671-0.122v-0.5215
	c0-0.1524,0.0239-0.1817,0.1709-0.2139c0.6372-0.0908,1.4213-0.2451,2.081-0.3965c0.6611-0.1533,1.1992-0.2754,1.2974-0.2754
	c0.2456,0,0.3188,0.2754,0.3188,0.6719c0,0.3379-0.0498,0.7969-0.0498,1.2256v8.0166c0,1.4688,0,2.0801,0.417,2.0801
	c0.5386,0,1.0767-0.2149,1.1509-0.2149c0.0488,0,0.0727,0.1524,0.0727,0.337c0,0.2763-0.0488,0.4277-0.0976,0.4609
	c-0.5874,0.2129-3.2564,1.5596-3.355,1.5596c-0.0723,0-0.1211-0.3975-0.1211-0.583c0-0.2452,0.0488-0.5489,0.0488-0.9473v-1.1318
	c-0.9321,1.1933-2.2041,2.6621-3.624,2.6621c-1.958,0-3.4018-1.2559-3.4018-4.2227V60.626z"/>
<path fill="#5F5E5E" d="M70.4683,58.21c-1.2481,0.6103-2.4971,1.2539-3.6963,2.0175l0.3423,1.0108
	c0.9799-0.4912,1.9096-1.2549,3.0849-1.6221l-3.4531,14.9033c-0.6602,2.8155-1.0518,3.3057-2.6919,3.3057l-0.1709,1.2227
	c1.273-0.0293,2.251-0.1211,3.207-0.1534c0.979,0,1.9576,0.0606,3.2559,0.1534l0.2441-1.2227h-0.832
	c-0.7583,0-1.2734-0.3994-1.2734-0.9492c0-1.2559,0.4423-2.7246,0.7353-3.9492c0.3911-1.5909,0.4888-1.834,0.6851-1.834
	c0.0737,0,0.4887,0.2129,1.6899,0.2129c3.793,0,7.6118-5.4473,7.6118-10.0371c0-2.6934-0.562-4.4668-2.6919-4.4668
	c-0.9301,0-2.5952,0.3359-3.5249,0.6425l0.4888-1.9902c0.0493-0.2139,0.0742-0.4277,0.0742-0.5195
	c0-0.5508-0.6372-0.6123-1.0029-0.6123c-0.6382,0-1.1524,0-1.2993,0.6425L70.4683,58.21z M72.647,58.7295
	c0.4892-0.3057,1.0029-0.3994,1.518-0.3994c1.4932,0,2.3501,1.2256,2.3501,3.3359c0,2.6924-1.6411,8.4151-4.333,8.4151
	c-1.0039,0-1.5669-0.6426-1.5669-1.8663c0-0.9472,0.147-1.4707,0.3179-2.1113L72.647,58.7295z"/>
<path fill="#5F5E5E" d="M89.71,56.8008c-3.6963,0-6.438,4.4062-6.438,8.8437c0,3.1211,1.542,5.6612,4.186,5.6612
	c3.6958,0,6.438-4.4073,6.438-8.8448C93.896,59.3408,92.354,56.8008,89.71,56.8008 M89.7837,58.0244
	c1.102,0,1.4194,1.2559,1.4194,2.6944c0,2.2333-1.1504,9.3632-3.6972,9.3632c-1.125,0-1.542-0.9804-1.542-2.6943
	C85.9639,65.5518,87.1147,58.0244,89.7837,58.0244"/>
<path fill="#5F5E5E" d="M104.3989,56.8008c-3.6958,0-6.4389,4.4062-6.4389,8.8437c0,3.1211,1.542,5.6612,4.187,5.6612
	c3.6968,0,6.4389-4.4073,6.4389-8.8448C108.5859,59.3408,107.043,56.8008,104.3989,56.8008 M104.4731,58.0244
	c1.1021,0,1.419,1.2559,1.419,2.6944c0,2.2333-1.1489,9.3632-3.6973,9.3632c-1.125,0-1.542-0.9804-1.542-2.6943
	C100.6528,65.5518,101.8042,58.0244,104.4731,58.0244"/>
<path fill="#5F5E5E" d="M114.7793,48.0488c1.7402-0.2138,3.4775-0.459,5.1426-1.1631l0.2676,0.3077
	c-0.6104,2.0185-4.9688,19.6748-4.9688,20.7763c0,0.3672,0.1963,0.7364,0.4893,0.7364c0.6845,0,1.666-1.7159,2.1289-2.2657
	l0.5654,0.6416c-0.957,1.4698-2.793,4.2237-4.5313,4.2237c-0.7832,0-1.4931-0.3985-1.4931-1.4688
	c0-2.0498,4.3584-18.1162,4.3584-19.707c0-1.0401-1.5654-1.0703-2.1055-1.0703L114.7793,48.0488z"/>
<path fill="#E63329" d="M124.2813,65.8701c1.1367,0,1.6855,1.2744,1.6855,2.4981c0,1.8115-1.0176,3.3769-2.6641,3.3769
	c-1.1367,0-1.5664-1.0742-1.5664-2.4453C121.7363,67.3887,122.6768,65.8701,124.2813,65.8701"/>
<path d="M139.2539,67.6338c-1.1006,1.958-2.4971,3.7646-4.5293,3.7646c-2.9365,0-4.7226-3.0908-4.7226-6.6406
	c0-3.8867,2.4218-7.4971,5.6298-7.4971c1.1006,0,3.2305,0.7041,3.2305,2.5391c0,0.7344-0.4893,1.1934-1.0283,1.1934
	c-1.1016,0-1.3701-2.7227-2.8887-2.7227c-1.9336,0-3.084,2.8438-3.084,4.957c0,2.7227,1.2002,6.1807,3.6973,6.1807
	c1.5166,0,2.375-1.1006,3.3291-2.4482L139.2539,67.6338z"/>
<path d="M146.7461,59.7393c1.1514-1.1329,2.4473-2.4786,4.0137-2.4786c2.1298,0,3.0371,1.4981,3.0371,4.0694v7.4678
	c0,1.3134,0.8066,1.3134,1.6162,1.3134c0.0488,0,0.0957,0.0625,0.0957,0.2158v0.5508c0,0.0616-0.0469,0.0899-0.1221,0.0899
	c-0.9785,0-1.6152-0.1533-2.4238-0.1533c-0.8818,0-1.7373,0.1533-2.6191,0.1533c-0.1709,0-0.1709-0.5489-0.1709-0.6729
	c0-0.0908,0.0986-0.1836,0.2441-0.1836c0.3906,0,1.5185,0,1.5185-0.9189v-7.1885c0-1.8984-0.4667-2.9687-2.1787-2.9687
	c-1.0293,0-2.3027,0.7646-3.0107,1.6513v7.9571c0,0.6738,0,1.4677,1.6875,1.4677c0.0508,0,0.0508,0.1836,0.0508,0.4287
	c0,0.2745-0.0254,0.4278-0.0742,0.4278c-0.9561,0-2.0323-0.1533-2.5469-0.1533c-0.8809,0-1.7637,0.1533-2.6426,0.1533
	c-0.1719,0-0.2207-0.0899-0.2207-0.2129v-0.2764c0-0.3672,0.0732-0.3672,0.415-0.3672c1.0782,0,1.4688-0.1826,1.4688-1.6201V51.9658
	c0-1.9267,0-2.0498-0.9541-2.54c-0.3652-0.1826-0.709-0.336-0.709-0.5811c0-0.2451,0.2441-0.3369,1.2481-0.8261l1.7861-0.8262
	c0.0488-0.0303,0.2939-0.1524,0.3681-0.1524c0.1719,0,0.1719,0.3047,0.1719,0.4883c0,1.4697-0.0488,2.9688-0.0488,4.4375V59.7393z"
	/>
<polygon fill="#E63329" points="132.8682,26.1265 126.4707,52.3145 128.4668,52.3145 134.8008,26.1265 "/>
<polygon fill="#E63329" points="176.9717,26.1265 170.6025,52.3145 175.6807,52.3145 182.0332,26.1265 "/>
<polygon fill="#E63329" points="168.2266,26.1265 161.8965,52.3145 164.8916,52.3145 171.2422,26.1265 "/>
<path fill="#E63329" d="M205.9209,84.8887c-0.3037,0-0.5439,0.2402-0.5439,0.5439c0,0.2959,0.2402,0.5352,0.5361,0.5352
	c0.3037,0,0.5439-0.2393,0.5439-0.5352S206.2168,84.8887,205.9209,84.8887 M202.0254,83.585
	c0.1279-0.6495,0.4238-0.961,0.9121-0.961c0.4961,0,0.7832,0.3203,0.8555,0.961H202.0254z M204.5928,84.168
	c0.0088-0.0723,0.0088-0.1436,0.0088-0.168c0-1.2324-0.6407-2.0068-1.6407-2.0068c-1.0556,0-1.7519,0.8144-1.7519,2.0468
	c0,1.1846,0.7041,1.96,1.7764,1.96c0.7753,0,1.3193-0.3906,1.5273-1.0947l-0.7031-0.0479c-0.169,0.3438-0.416,0.4951-0.8008,0.4951
	c-0.624,0-0.9756-0.416-1.0078-1.1845H204.5928z M199.5303,85.8965h0.7988v-5.3672h-0.7988V85.8965z M196.8809,82.6318
	c0.5693,0,0.9609,0.5606,0.9609,1.3692c0,0.8076-0.3916,1.3603-0.9609,1.3603c-0.584,0-0.9678-0.5439-0.9678-1.3759
	C195.9131,83.1836,196.3135,82.6318,196.8809,82.6318 M196.8809,81.9932c-1.0235,0-1.7745,0.8388-1.7745,1.9746
	c0,1.2011,0.7266,2.0322,1.7745,2.0322c1.0332,0,1.7685-0.8311,1.7685-1.999C198.6494,82.832,197.9141,81.9932,196.8809,81.9932
	 M191.2412,82.0967l1.3516,3.831h0.872l1.3526-3.831h-0.8242l-0.96,2.9443l-0.9678-2.9443H191.2412z M188.3926,83.585
	c0.1279-0.6495,0.4238-0.961,0.9111-0.961c0.4961,0,0.7842,0.3203,0.8565,0.961H188.3926z M190.96,84.168
	c0.0078-0.0723,0.0078-0.1436,0.0078-0.168c0-1.2324-0.6397-2.0068-1.6397-2.0068c-1.0556,0-1.7519,0.8144-1.7519,2.0468
	c0,1.1846,0.7041,1.96,1.7763,1.96c0.7754,0,1.3194-0.3906,1.5274-1.0947l-0.7041-0.0479c-0.168,0.3438-0.416,0.4951-0.7998,0.4951
	c-0.624,0-0.9756-0.416-1.0078-1.1845H190.96z M184.9678,82.0967c0.04,0.3349,0.0478,0.4072,0.0478,1.2314v2.5684h0.791v-1.7354
	c0-0.4248,0.0401-0.7129,0.1368-0.9287c0.1435-0.3359,0.3837-0.5205,0.6875-0.5205c0.1845,0,0.3359,0.0479,0.5527,0.168v-0.791
	c-0.1602-0.0557-0.2647-0.0801-0.377-0.0801c-0.4316,0-0.7597,0.2803-1.039,0.8877c0.0078-0.0967,0.0078-0.1602,0.0078-0.2168
	c0-0.1992-0.0244-0.3994-0.0566-0.583H184.9678z M180.7764,82.0967v2.2646c0,0.4873,0.0556,0.7998,0.1757,1.0157
	c0.2159,0.3828,0.6465,0.6074,1.1602,0.6074c0.4795,0,0.7842-0.168,1.04-0.5596c0.0079,0.1846,0.0401,0.3594,0.0801,0.4717h0.751
	c-0.0967-0.3115-0.0967-0.3115-0.0967-1.168v-2.6318h-0.7822v2.0879c0,0.3281-0.04,0.5361-0.1279,0.6963
	c-0.1446,0.2636-0.3926,0.4082-0.7041,0.4082c-0.2412,0-0.4493-0.0879-0.5694-0.2481c-0.0957-0.1279-0.1435-0.3515-0.1435-0.7041
	v-2.2402H180.7764z M178.0322,82.6719c0.5362,0,0.8721,0.5039,0.8721,1.3203c0,0.8164-0.3438,1.3291-0.8965,1.3291
	c-0.5449,0-0.8808-0.4961-0.8808-1.3047C177.127,83.1758,177.4707,82.6719,178.0322,82.6719 M179.6709,80.5293h-0.7832v2.0391
	c-0.2881-0.4073-0.5596-0.5596-1.0234-0.5596c-0.9053,0-1.544,0.8389-1.544,2.0244c0,1.1758,0.6231,1.9512,1.5674,1.9512
	c0.5049,0,0.8164-0.1846,1.0723-0.6231c-0.0079,0.0801-0.0079,0.1201-0.0079,0.168c0,0.1201,0.0079,0.207,0.0479,0.3672h0.7432
	c-0.0557-0.2559-0.0723-0.5039-0.0723-1.168V80.5293z M171.1201,83.585c0.1279-0.6495,0.4238-0.961,0.9121-0.961
	c0.4961,0,0.7842,0.3203,0.8555,0.961H171.1201z M173.6885,84.168c0.0078-0.0723,0.0078-0.1436,0.0078-0.168
	c0-1.2324-0.6406-2.0068-1.6406-2.0068c-1.0557,0-1.752,0.8144-1.752,2.0468c0,1.1846,0.7041,1.96,1.7764,1.96
	c0.7763,0,1.3203-0.3906,1.5283-1.0947l-0.7041-0.0479c-0.168,0.3438-0.416,0.4951-0.7998,0.4951
	c-0.624,0-0.9766-0.416-1.0088-1.1845H173.6885z M167.6963,82.0967c0.04,0.3349,0.0478,0.4072,0.0478,1.2314v2.5684h0.7911v-1.7354
	c0-0.4248,0.04-0.7129,0.1357-0.9287c0.1445-0.3359,0.3838-0.5205,0.6885-0.5205c0.1836,0,0.3359,0.0479,0.5517,0.168v-0.791
	c-0.1601-0.0557-0.2636-0.0801-0.3759-0.0801c-0.4317,0-0.7598,0.2803-1.0401,0.8877c0.0078-0.0967,0.0078-0.1602,0.0078-0.2168
	c0-0.1992-0.0234-0.3994-0.0556-0.583H167.6963z M165.1035,82.6318c0.5684,0,0.961,0.5606,0.961,1.3692
	c0,0.8076-0.3926,1.3603-0.961,1.3603c-0.584,0-0.9687-0.5439-0.9687-1.3759C164.1348,83.1836,164.5352,82.6318,165.1035,82.6318
	 M165.1035,81.9932c-1.0244,0-1.7754,0.8388-1.7754,1.9746c0,1.2011,0.7266,2.0322,1.7754,2.0322
	c1.0322,0,1.7676-0.8311,1.7676-1.999C166.8711,82.832,166.1357,81.9932,165.1035,81.9932 M161.6484,85.8965h0.7989v-5.3672h-0.7989
	V85.8965z M159.7686,84.2646c0,0.3282-0.0323,0.5362-0.1045,0.6807c-0.128,0.2559-0.4082,0.416-0.7364,0.416
	c-0.3847,0-0.6484-0.2246-0.6484-0.5527c0-0.4561,0.3838-0.6719,1.4893-0.8408V84.2646z M158.3594,83.168
	c0.0713-0.3516,0.3115-0.5196,0.7451-0.5196c0.4795,0,0.6641,0.1836,0.6641,0.6719v0.1035
	c-0.8487,0.1524-1.0733,0.2002-1.4258,0.336c-0.5664,0.2158-0.8711,0.6093-0.8711,1.1377c0,0.6718,0.4961,1.0869,1.2959,1.0869
	c0.5205,0,0.8808-0.1846,1.0888-0.5596c0,0.208,0.0157,0.2949,0.0635,0.4717h0.7276c-0.0967-0.2236-0.1202-0.4072-0.1202-0.9199
	v-1.4805c0-0.4805-0.0244-0.6797-0.1201-0.8965c-0.1601-0.375-0.6152-0.5908-1.2549-0.5908c-0.4648,0-0.873,0.1201-1.1377,0.335
	c-0.246,0.1923-0.3662,0.4326-0.415,0.8242H158.3594z M153.5771,82.0967l1.3516,3.831h0.8721l1.3525-3.831h-0.8242l-0.96,2.9443
	l-0.9677-2.9443H153.5771z M150.5449,80.4727c-0.3037,0-0.5117,0.208-0.5117,0.5117c0,0.2793,0.2002,0.4795,0.4961,0.4795
	c0.2949,0,0.4951-0.2002,0.4951-0.4883C151.0244,80.6807,150.8242,80.4727,150.5449,80.4727 M150.1289,85.8965h0.7988v-3.7998
	h-0.7988V85.8965z M147.3613,82.6719c0.5362,0,0.8721,0.5039,0.8721,1.3203c0,0.8164-0.3447,1.3291-0.8965,1.3291
	c-0.5449,0-0.8808-0.4961-0.8808-1.3047C146.4561,83.1758,146.7998,82.6719,147.3613,82.6719 M149,80.5293h-0.7832v2.0391
	c-0.2881-0.4073-0.5596-0.5596-1.0234-0.5596c-0.9053,0-1.544,0.8389-1.544,2.0244c0,1.1758,0.6231,1.9512,1.5674,1.9512
	c0.5039,0,0.8164-0.1846,1.0723-0.6231c-0.0078,0.0801-0.0078,0.1201-0.0078,0.168c0,0.1201,0.0078,0.207,0.0478,0.3672h0.7432
	C149.0156,85.6406,149,85.3926,149,84.7285V80.5293z M140.4492,83.585c0.1279-0.6495,0.4238-0.961,0.9121-0.961
	c0.4961,0,0.7842,0.3203,0.8555,0.961H140.4492z M143.0176,84.168c0.0078-0.0723,0.0078-0.1436,0.0078-0.168
	c0-1.2324-0.6406-2.0068-1.6406-2.0068c-1.0557,0-1.752,0.8144-1.752,2.0468c0,1.1846,0.7041,1.96,1.7764,1.96
	c0.7763,0,1.3203-0.3906,1.5283-1.0947l-0.7041-0.0479c-0.168,0.3438-0.416,0.4951-0.8008,0.4951
	c-0.623,0-0.9756-0.416-1.0078-1.1845H143.0176z M135.5693,82.0967c0.1036,0.3672,0.1036,0.3994,0.1036,1.3271v2.4727h0.7832
	v-2.0244c0-0.3438,0.04-0.5684,0.1279-0.7364c0.1455-0.2714,0.417-0.4316,0.7295-0.4316c0.2715,0,0.4795,0.1123,0.584,0.3281
	c0.08,0.1602,0.1035,0.3438,0.1035,0.8076v2.0567h0.7832v-2.1846c0-0.7041-0.0244-0.8721-0.1514-1.1201
	c-0.1836-0.3584-0.5918-0.583-1.0801-0.583c-0.4961,0-0.8808,0.2002-1.1445,0.6074c-0.0078-0.2402-0.0244-0.3682-0.0791-0.5195
	H135.5693z M133.0254,82.6318c0.5684,0,0.959,0.5606,0.959,1.3692c0,0.8076-0.3906,1.3603-0.959,1.3603
	c-0.584,0-0.9688-0.5439-0.9688-1.3759C132.0566,83.1836,132.457,82.6318,133.0254,82.6318 M133.0254,81.9932
	c-1.0254,0-1.7764,0.8388-1.7764,1.9746c0,1.2011,0.7276,2.0322,1.7764,2.0322c1.0312,0,1.7666-0.8311,1.7666-1.999
	C134.792,82.832,134.0566,81.9932,133.0254,81.9932 M129.9844,80.4727c-0.3028,0-0.5117,0.208-0.5117,0.5117
	c0,0.2793,0.2011,0.4795,0.4961,0.4795c0.2968,0,0.4951-0.2002,0.4951-0.4883C130.4639,80.6807,130.2656,80.4727,129.9844,80.4727
	 M129.5693,85.8965h0.7989v-3.7998h-0.7989V85.8965z M126.0645,82.0967v0.6474h1.7773l-1.9609,2.545v0.6074h2.9121V85.249h-1.9844
	l1.9922-2.5693v-0.583H126.0645z M124.3945,84.2646c0,0.3282-0.0322,0.5362-0.1045,0.6807c-0.1289,0.2559-0.4091,0.416-0.7373,0.416
	c-0.3838,0-0.6474-0.2246-0.6474-0.5527c0-0.4561,0.3838-0.6719,1.4892-0.8408V84.2646z M122.9844,83.168
	c0.0722-0.3516,0.3125-0.5196,0.7441-0.5196c0.4805,0,0.666,0.1836,0.666,0.6719v0.1035c-0.8496,0.1524-1.0732,0.2002-1.4257,0.336
	c-0.5684,0.2158-0.8711,0.6093-0.8711,1.1377c0,0.6718,0.4961,1.0869,1.2949,1.0869c0.5205,0,0.8808-0.1846,1.0898-0.5596
	c0,0.208,0.0147,0.2949,0.0625,0.4717h0.7285c-0.0957-0.2236-0.1201-0.4072-0.1201-0.9199v-1.4805
	c0-0.4805-0.0244-0.6797-0.1201-0.8965c-0.1602-0.375-0.6152-0.5908-1.2559-0.5908c-0.4648,0-0.872,0.1201-1.1367,0.335
	c-0.248,0.1923-0.3672,0.4326-0.416,0.8242H122.9844z M115.8027,82.0967c0.0879,0.2793,0.0957,0.375,0.0957,1.0312v2.7686h0.7832
	v-2.1602c0-0.2724,0.0235-0.4404,0.0957-0.6006c0.1114-0.2714,0.3838-0.4316,0.7198-0.4316c0.2646,0,0.4814,0.1035,0.5771,0.2881
	c0.0723,0.1357,0.0879,0.2402,0.0879,0.7353v2.169h0.7832v-2.1924c0-0.6719,0.2637-1,0.7998-1c0.2647,0,0.4649,0.0879,0.5694,0.2559
	c0.08,0.1279,0.1035,0.2724,0.1035,0.6796v2.2569h0.7832v-2.2647c0-0.7519-0.0157-0.8554-0.1367-1.0957
	c-0.168-0.3349-0.5342-0.5273-1.0235-0.5273c-0.5273,0-0.8965,0.2002-1.1992,0.6396c-0.209-0.4394-0.5518-0.6396-1.0723-0.6396
	c-0.5039,0-0.8642,0.1846-1.1289,0.5996c0-0.208-0.0234-0.3682-0.0801-0.5117H115.8027z M113.002,82.0967
	c0.04,0.3349,0.0483,0.4072,0.0483,1.2314v2.5684h0.791v-1.7354c0-0.4248,0.0396-0.7129,0.1358-0.9287
	c0.144-0.3359,0.3842-0.5205,0.6879-0.5205c0.1846,0,0.336,0.0479,0.5518,0.168v-0.791c-0.1602-0.0557-0.2637-0.0801-0.375-0.0801
	c-0.4326,0-0.7607,0.2803-1.0405,0.8877c0.0078-0.0967,0.0078-0.1602,0.0078-0.2168c0-0.1992-0.0239-0.3994-0.0562-0.583H113.002z
	 M110.4102,82.6318c0.5678,0,0.9599,0.5606,0.9599,1.3692c0,0.8076-0.3921,1.3603-0.9599,1.3603
	c-0.585,0-0.9693-0.5439-0.9693-1.3759C109.4409,83.1836,109.8413,82.6318,110.4102,82.6318 M110.4102,81.9932
	c-1.0249,0-1.7759,0.8388-1.7759,1.9746c0,1.2011,0.727,2.0322,1.7759,2.0322c1.0317,0,1.767-0.8311,1.767-1.999
	C112.1772,82.832,111.4419,81.9932,110.4102,81.9932 M105.8262,82.7773v-1.5048h2.3359v-0.712h-3.1592v5.336h0.8233v-2.4082h2.144
	v-0.711H105.8262z"/>
</svg>
