<?xml version="1.0" encoding="utf-8"?>
<!-- Generator: Adobe Illustrator 26.0.3, SVG Export Plug-In . SVG Version: 6.00 Build 0)  -->
<svg version="1.1" id="Ebene_1" xmlns="http://www.w3.org/2000/svg" xmlns:xlink="http://www.w3.org/1999/xlink" x="0px" y="0px"
	 width="226.7695px" height="113.3896px" viewBox="0 0 226.7695 113.3896" enable-background="new 0 0 226.7695 113.3896"
	 xml:space="preserve">
<path d="M29.8862,62.7979v-0.9483c0-2.5391-1.541-4.5889-3.7212-4.5889c-3.207,0-5.165,4.1299-5.165,7.7413
	c0,3.3974,2.0322,6.3964,4.5293,6.3964c1.959,0,3.4277-1.4072,4.4067-3.3984l-0.4399-0.3965
	c-1.2251,1.3779-1.8618,1.8047-2.7671,1.8047c-2.229,0-3.8677-2.6631-3.8677-5.3242c0-0.4277,0-0.8574,0.0479-1.2861H29.8862z
	 M23.0322,62.0947c0.2451-1.7138,1.2481-3.8252,2.7178-3.8252c1.1992,0,2.104,1.0713,2.104,2.5703
	c0,0.5206-0.3657,1.1016-0.6851,1.1016L23.0322,62.0947z"/>
<path d="M44.2085,51.9658c0-1.4687,0.0478-2.9678,0.0478-4.4365c0-0.1836,0-0.4902-0.1709-0.4902
	c-0.0732,0-0.2451,0.0918-0.3662,0.1533l-1.788,0.918c-0.4649,0.2138-1.0777,0.4589-1.0777,0.7343
	c0,0.2442,0.1968,0.3975,0.564,0.5821c0.7588,0.3662,0.9297,0.58,0.9297,1.7138v6.793c-0.4649-0.3975-1.836-0.6729-2.4478-0.6729
	c-3.4033,0-5.8022,3.7325-5.8022,7.8038c0,3.2431,1.7871,6.3339,4.5293,6.3339c1.4687,0,2.6928-1.2558,3.77-2.3584v1.6846
	c0,0.0908,0.0249,0.5811,0.0976,0.5811c0.5884,0,2.8643-1.0401,3.5254-1.377v-0.582c0-0.1533-0.0732-0.3067-0.1474-0.3067
	c-0.0479,0-0.562,0.3067-0.9536,0.3067c-0.417,0-0.71-0.3067-0.71-1.2539V51.9658z M42.3472,67.9707
	c-0.8081,1.1016-1.6641,1.6504-2.8648,1.6504c-2.2031,0-3.354-3.2725-3.354-5.5986c0-2.5098,0.9307-5.752,3.3301-5.752
	c1.6157,0,2.8887,1.5596,2.8887,3.5498V67.9707z"/>
<path d="M51.5225,60.626c0-1.6826-0.5879-1.836-1.5923-1.836c-0.1216,0-0.3667-0.0312-0.3667-0.122v-0.5215
	c0-0.1524,0.0239-0.1817,0.1719-0.2139c0.6362-0.0908,1.4189-0.2451,2.081-0.3965c0.6602-0.1533,1.1992-0.2754,1.2969-0.2754
	c0.2451,0,0.3183,0.2754,0.3183,0.6719c0,0.3379-0.0493,0.7969-0.0493,1.2256v7.1289c0,2.0811,0.6612,3.1221,2.4483,3.1221
	c1.0527,0,2.0317-0.7979,2.7417-1.6533V60.626c0-1.6826-0.586-1.836-1.5909-1.836c-0.123,0-0.3671-0.0312-0.3671-0.122v-0.5215
	c0-0.1524,0.0239-0.1817,0.1709-0.2139c0.6372-0.0908,1.4213-0.2451,2.081-0.3965c0.6611-0.1533,1.1992-0.2754,1.2974-0.2754
	c0.2456,0,0.3188,0.2754,0.3188,0.6719c0,0.3379-0.0498,0.7969-0.0498,1.2256v8.0166c0,1.4688,0,2.0801,0.417,2.0801
	c0.5386,0,1.0767-0.2149,1.1509-0.2149c0.0488,0,0.0727,0.1524,0.0727,0.337c0,0.2763-0.0488,0.4277-0.0976,0.4609
	c-0.5874,0.2129-3.2564,1.5596-3.355,1.5596c-0.0723,0-0.1211-0.3975-0.1211-0.583c0-0.2442,0.0488-0.5489,0.0488-0.9473v-1.1318
	c-0.9321,1.1933-2.2041,2.6621-3.624,2.6621c-1.958,0-3.4018-1.2559-3.4018-4.2227V60.626z"/>
<path fill="#5F5E5E" d="M70.4683,58.21c-1.2481,0.6103-2.4971,1.2539-3.6963,2.0175l0.3423,1.0108
	c0.9799-0.4912,1.9096-1.2549,3.0849-1.6221l-3.4531,14.9033c-0.6602,2.8155-1.0518,3.3057-2.6919,3.3057l-0.1709,1.2227
	c1.273-0.0293,2.251-0.1211,3.207-0.1534c0.979,0,1.9576,0.0606,3.2559,0.1534l0.2441-1.2227h-0.832
	c-0.7583,0-1.2734-0.3994-1.2734-0.9492c0-1.2559,0.4423-2.7246,0.7353-3.9492c0.3911-1.5909,0.4888-1.834,0.6851-1.834
	c0.0737,0,0.4887,0.2129,1.6899,0.2129c3.793,0,7.6118-5.4473,7.6118-10.0371c0-2.6934-0.562-4.4668-2.6919-4.4668
	c-0.9301,0-2.5952,0.3359-3.5249,0.6425l0.4888-1.9902c0.0493-0.2139,0.0742-0.4277,0.0742-0.5195
	c0-0.5508-0.6372-0.6123-1.0029-0.6123c-0.6382,0-1.1524,0-1.2993,0.6425L70.4683,58.21z M72.647,58.7295
	c0.4892-0.3057,1.0029-0.3994,1.518-0.3994c1.4932,0,2.3501,1.2256,2.3501,3.3359c0,2.6924-1.6411,8.4151-4.333,8.4151
	c-1.0039,0-1.5669-0.6426-1.5669-1.8663c0-0.9482,0.147-1.4707,0.3179-2.1113L72.647,58.7295z"/>
<path fill="#5F5E5E" d="M89.71,56.8008c-3.6963,0-6.438,4.4062-6.438,8.8437c0,3.1211,1.542,5.6612,4.186,5.6612
	c3.6958,0,6.438-4.4073,6.438-8.8448C93.896,59.3408,92.354,56.8008,89.71,56.8008 M89.7837,58.0244
	c1.102,0,1.4194,1.2559,1.4194,2.6944c0,2.2333-1.1504,9.3632-3.6972,9.3632c-1.125,0-1.542-0.9804-1.542-2.6943
	C85.9639,65.5518,87.1147,58.0244,89.7837,58.0244"/>
<path fill="#5F5E5E" d="M104.3989,56.8008c-3.6958,0-6.4389,4.4062-6.4389,8.8437c0,3.1211,1.542,5.6612,4.187,5.6612
	c3.6968,0,6.4389-4.4073,6.4389-8.8448C108.5859,59.3408,107.043,56.8008,104.3989,56.8008 M104.4731,58.0244
	c1.1021,0,1.419,1.2559,1.419,2.6944c0,2.2333-1.1489,9.3632-3.6973,9.3632c-1.125,0-1.542-0.9804-1.542-2.6943
	C100.6528,65.5518,101.8042,58.0244,104.4731,58.0244"/>
<path fill="#5F5E5E" d="M114.7793,48.0488c1.7402-0.2138,3.4775-0.459,5.1426-1.1631l0.2676,0.3067
	c-0.6104,2.0195-4.9688,19.6758-4.9688,20.7773c0,0.3672,0.1963,0.7364,0.4893,0.7364c0.6845,0,1.666-1.7159,2.1289-2.2657
	l0.5654,0.6416c-0.957,1.4698-2.793,4.2237-4.5313,4.2237c-0.7832,0-1.4931-0.3985-1.4931-1.4688
	c0-2.0498,4.3584-18.1162,4.3584-19.707c0-1.0401-1.5654-1.0703-2.1055-1.0703L114.7793,48.0488z"/>
<path fill="#E63329" d="M124.2813,65.8701c1.1367,0,1.6855,1.2744,1.6855,2.4981c0,1.8115-1.0176,3.3769-2.6641,3.3769
	c-1.1367,0-1.5664-1.0742-1.5664-2.4453C121.7363,67.3887,122.6768,65.8701,124.2813,65.8701"/>
<path d="M139.2539,67.6338c-1.1006,1.958-2.4971,3.7646-4.5293,3.7646c-2.9365,0-4.7226-3.0908-4.7226-6.6406
	c0-3.8867,2.4218-7.4971,5.6298-7.4971c1.1006,0,3.2305,0.7041,3.2305,2.5391c0,0.7344-0.4893,1.1934-1.0283,1.1934
	c-1.1016,0-1.3701-2.7227-2.8887-2.7227c-1.9336,0-3.084,2.8438-3.084,4.957c0,2.7227,1.2002,6.1807,3.6973,6.1807
	c1.5166,0,2.375-1.1006,3.3291-2.4482L139.2539,67.6338z"/>
<path d="M146.7461,59.7393c1.1514-1.1329,2.4473-2.4786,4.0137-2.4786c2.1298,0,3.0371,1.4981,3.0371,4.0694v7.4678
	c0,1.3134,0.8066,1.3134,1.6162,1.3134c0.0488,0,0.0957,0.0625,0.0957,0.2158v0.5508c0,0.0616-0.0469,0.0899-0.1221,0.0899
	c-0.9785,0-1.6152-0.1533-2.4238-0.1533c-0.8818,0-1.7373,0.1533-2.6191,0.1533c-0.1709,0-0.1709-0.5489-0.1709-0.6729
	c0-0.0908,0.0986-0.1836,0.2441-0.1836c0.3906,0,1.5185,0,1.5185-0.9189v-7.1885c0-1.8984-0.4667-2.9687-2.1787-2.9687
	c-1.0293,0-2.3027,0.7646-3.0107,1.6513v7.9571c0,0.6738,0,1.4677,1.6875,1.4677c0.0508,0,0.0508,0.1836,0.0508,0.4287
	c0,0.2745-0.0254,0.4278-0.0742,0.4278c-0.9561,0-2.0323-0.1533-2.5469-0.1533c-0.8809,0-1.7637,0.1533-2.6426,0.1533
	c-0.1719,0-0.2207-0.0899-0.2207-0.2129v-0.2764c0-0.3672,0.0732-0.3672,0.415-0.3672c1.0782,0,1.4688-0.1826,1.4688-1.6201V51.9658
	c0-1.9267,0-2.0498-0.9541-2.54c-0.3652-0.1826-0.709-0.336-0.709-0.5811c0-0.2451,0.2441-0.3369,1.2481-0.8261l1.7861-0.8262
	c0.0488-0.0303,0.2939-0.1524,0.3681-0.1524c0.1719,0,0.1719,0.3047,0.1719,0.4883c0,1.4697-0.0488,2.9688-0.0488,4.4375V59.7393z"
	/>
<polygon fill="#E63329" points="132.8682,26.1265 126.4707,52.3145 128.4668,52.3145 134.8008,26.1265 "/>
<polygon fill="#E63329" points="176.9717,26.1265 170.6025,52.3145 175.6807,52.3145 182.0332,26.1265 "/>
<polygon fill="#E63329" points="168.2266,26.1265 161.8965,52.3145 164.8916,52.3145 171.2422,26.1265 "/>
<g>
	<path fill="#E63329" d="M205.9473,84.8887c-0.3047,0-0.545,0.2402-0.545,0.5439c0,0.2959,0.2403,0.5352,0.5362,0.5352
		c0.3047,0,0.5439-0.2393,0.5439-0.5352S206.2432,84.8887,205.9473,84.8887 M202.0508,83.585
		c0.1279-0.6495,0.4238-0.961,0.9121-0.961c0.4961,0,0.7842,0.3203,0.8555,0.961H202.0508z M204.6191,84.168
		c0.0079-0.0723,0.0079-0.1436,0.0079-0.168c0-1.2324-0.6407-2.0068-1.6407-2.0068c-1.0556,0-1.7519,0.8144-1.7519,2.0468
		c0,1.1846,0.7041,1.96,1.7763,1.96c0.7764,0,1.3204-0.3906,1.5284-1.0947l-0.7041-0.0479
		c-0.168,0.3438-0.4161,0.4951-0.7998,0.4951c-0.6241,0-0.9766-0.416-1.0088-1.1845H204.6191z M199.5557,85.8965h0.7988v-5.3672
		h-0.7988V85.8965z M197.0029,82.6797c0.5293,0,0.8565,0.5039,0.8565,1.3057c0,0.8154-0.3438,1.3359-0.8965,1.3359
		c-0.5361,0-0.8799-0.5127-0.8799-1.3047C196.083,83.1924,196.4346,82.6797,197.0029,82.6797 M195.3076,80.5293v4.3359
		c0,0.6563,0,0.7442-0.04,1.0313h0.6953c0.0478-0.1602,0.0635-0.3037,0.0723-0.5195c0.2314,0.415,0.5595,0.6074,1.0312,0.6074
		c0.9453,0,1.6006-0.8155,1.6006-1.9922c0-1.1602-0.6231-1.9834-1.5117-1.9834c-0.4561,0-0.7608,0.1758-1.0645,0.6074v-2.0869
		H195.3076z M193.4355,84.2646c0,0.3282-0.0322,0.5362-0.1035,0.6807c-0.1279,0.2559-0.4082,0.416-0.7373,0.416
		c-0.3838,0-0.6474-0.2246-0.6474-0.5527c0-0.4561,0.3838-0.6719,1.4882-0.8408V84.2646z M192.0264,83.168
		c0.0722-0.3516,0.3125-0.5196,0.7441-0.5196c0.4815,0,0.665,0.1836,0.665,0.6719v0.1035c-0.8486,0.1524-1.0722,0.2002-1.4248,0.336
		c-0.5673,0.2158-0.8711,0.6093-0.8711,1.1377c0,0.6718,0.4952,1.0869,1.295,1.0869c0.5215,0,0.8808-0.1846,1.0888-0.5596
		c0,0.208,0.0166,0.2949,0.0645,0.4717h0.7266c-0.0957-0.2236-0.1202-0.4072-0.1202-0.9199v-1.4805
		c0-0.4805-0.0234-0.6797-0.1191-0.8965c-0.1602-0.375-0.6152-0.5908-1.2568-0.5908c-0.4639,0-0.8711,0.1201-1.1358,0.335
		c-0.2471,0.1923-0.3672,0.4326-0.415,0.8242H192.0264z M188.4756,82.0967c0.04,0.3349,0.0478,0.4072,0.0478,1.2314v2.5684h0.7911
		v-1.7354c0-0.4248,0.04-0.7129,0.1367-0.9287c0.1435-0.3359,0.3838-0.5205,0.6875-0.5205c0.1845,0,0.3359,0.0479,0.5517,0.168
		v-0.791c-0.1591-0.0557-0.2636-0.0801-0.3759-0.0801c-0.4317,0-0.7598,0.2803-1.0401,0.8877
		c0.0088-0.0967,0.0088-0.1602,0.0088-0.2168c0-0.1992-0.0244-0.3994-0.0566-0.583H188.4756z M184.2842,82.0967v2.2646
		c0,0.4873,0.0556,0.7998,0.1758,1.0157c0.2148,0.3828,0.6464,0.6074,1.1591,0.6074c0.4805,0,0.7842-0.168,1.0411-0.5596
		c0.0078,0.1846,0.04,0.3594,0.08,0.4717h0.751c-0.0967-0.3115-0.0967-0.3115-0.0967-1.168v-2.6318h-0.7832v2.0879
		c0,0.3281-0.039,0.5361-0.1279,0.6963c-0.1436,0.2636-0.3916,0.4082-0.7051,0.4082c-0.2392,0-0.4472-0.0879-0.5674-0.2481
		c-0.0957-0.1279-0.1445-0.3515-0.1445-0.7041v-2.2402H184.2842z M181.54,82.6719c0.5362,0,0.8721,0.5039,0.8721,1.3203
		c0,0.8164-0.3447,1.3291-0.8975,1.3291c-0.5439,0-0.8798-0.4961-0.8798-1.3047C180.6348,83.1758,180.9785,82.6719,181.54,82.6719
		 M183.1787,80.5293h-0.7832v2.0391c-0.2881-0.4073-0.5596-0.5596-1.0244-0.5596c-0.9043,0-1.543,0.8389-1.543,2.0244
		c0,1.1758,0.6231,1.9512,1.5664,1.9512c0.5049,0,0.8174-0.1846,1.0733-0.6231c-0.0078,0.0801-0.0078,0.1201-0.0078,0.168
		c0,0.1201,0.0078,0.207,0.0478,0.3672h0.7432c-0.0567-0.2559-0.0723-0.5039-0.0723-1.168V80.5293z M175.1953,82.0967
		c0.0401,0.3349,0.0488,0.4072,0.0488,1.2314v2.5684h0.7911v-1.7354c0-0.4248,0.04-0.7129,0.1357-0.9287
		c0.1436-0.3359,0.3838-0.5205,0.6875-0.5205c0.1846,0,0.3359,0.0479,0.5527,0.168v-0.791
		c-0.1601-0.0557-0.2646-0.0801-0.3759-0.0801c-0.4327,0-0.7608,0.2803-1.0401,0.8877c0.0078-0.0967,0.0078-0.1602,0.0078-0.2168
		c0-0.1992-0.0244-0.3994-0.0556-0.583H175.1953z M171.0039,82.0967v2.2646c0,0.4873,0.0557,0.7998,0.1758,1.0157
		c0.2158,0.3828,0.6474,0.6074,1.1592,0.6074c0.4804,0,0.7851-0.168,1.041-0.5596c0.0078,0.1846,0.04,0.3594,0.0801,0.4717h0.7509
		c-0.0957-0.3115-0.0957-0.3115-0.0957-1.168v-2.6318h-0.7832v2.0879c0,0.3281-0.04,0.5361-0.1279,0.6963
		c-0.1445,0.2636-0.3926,0.4082-0.7051,0.4082c-0.2402,0-0.4482-0.0879-0.5683-0.2481c-0.0957-0.1279-0.1436-0.3515-0.1436-0.7041
		v-2.2402H171.0039z M167.5801,83.585c0.1279-0.6495,0.4238-0.961,0.9121-0.961c0.4961,0,0.7832,0.3203,0.8555,0.961H167.5801z
		 M170.1475,84.168c0.0088-0.0723,0.0088-0.1436,0.0088-0.168c0-1.2324-0.6407-2.0068-1.6407-2.0068
		c-1.0556,0-1.7519,0.8144-1.7519,2.0468c0,1.1846,0.7041,1.96,1.7763,1.96c0.7754,0,1.3194-0.3906,1.5274-1.0947l-0.7031-0.0479
		c-0.169,0.3438-0.4161,0.4951-0.8008,0.4951c-0.624,0-0.9756-0.416-1.0078-1.1845H170.1475z M165.084,85.8965h0.7988v-5.3672
		h-0.7988V85.8965z M163.2041,84.2646c0,0.3282-0.0322,0.5362-0.1045,0.6807c-0.1279,0.2559-0.4082,0.416-0.7353,0.416
		c-0.3858,0-0.6495-0.2246-0.6495-0.5527c0-0.4561,0.3838-0.6719,1.4893-0.8408V84.2646z M161.7949,83.168
		c0.0723-0.3516,0.3115-0.5196,0.7451-0.5196c0.4795,0,0.6641,0.1836,0.6641,0.6719v0.1035
		c-0.8486,0.1524-1.0732,0.2002-1.4258,0.336c-0.5664,0.2158-0.8701,0.6093-0.8701,1.1377c0,0.6718,0.4951,1.0869,1.2959,1.0869
		c0.5195,0,0.8799-0.1846,1.0879-0.5596c0,0.208,0.0156,0.2949,0.0635,0.4717h0.7275c-0.0967-0.2236-0.1201-0.4072-0.1201-0.9199
		v-1.4805c0-0.4805-0.0244-0.6797-0.1201-0.8965c-0.1592-0.375-0.6153-0.5908-1.2549-0.5908c-0.4649,0-0.8731,0.1201-1.1358,0.335
		c-0.248,0.1923-0.3681,0.4326-0.416,0.8242H161.7949z M157.0127,82.0967l1.3525,3.831h0.8711l1.3526-3.831h-0.8243l-0.9599,2.9443
		l-0.9678-2.9443H157.0127z M152.0527,83.585c0.128-0.6495,0.4239-0.961,0.9121-0.961c0.4961,0,0.7842,0.3203,0.8555,0.961H152.0527
		z M154.6211,84.168c0.0078-0.0723,0.0078-0.1436,0.0078-0.168c0-1.2324-0.6396-2.0068-1.6396-2.0068
		c-1.0567,0-1.753,0.8144-1.753,2.0468c0,1.1846,0.7041,1.96,1.7764,1.96c0.7764,0,1.3203-0.3906,1.5283-1.0947l-0.7041-0.0479
		c-0.168,0.3438-0.416,0.4951-0.7998,0.4951c-0.624,0-0.9766-0.416-1.0088-1.1845H154.6211z M148.7246,82.6719
		c0.5361,0,0.8721,0.5039,0.8721,1.3203c0,0.8164-0.3438,1.3291-0.8955,1.3291c-0.544,0-0.8819-0.4961-0.8819-1.3047
		C147.8193,83.1758,148.1641,82.6719,148.7246,82.6719 M150.3643,80.5293h-0.7832v2.0391
		c-0.2881-0.4073-0.5606-0.5596-1.0245-0.5596c-0.9043,0-1.5439,0.8389-1.5439,2.0244c0,1.1758,0.624,1.9512,1.5684,1.9512
		c0.5039,0,0.8154-0.1846,1.0712-0.6231c-0.0078,0.0801-0.0078,0.1201-0.0078,0.168c0,0.1201,0.0078,0.207,0.0479,0.3672h0.7431
		c-0.0556-0.2559-0.0712-0.5039-0.0712-1.168V80.5293z M144.3076,83.208c-0.0478-0.7764-0.5664-1.2148-1.4306-1.2148
		c-0.8487,0-1.4239,0.4707-1.4239,1.167c0,0.5439,0.2715,0.8242,1.0313,1.0488c0.5927,0.1836,0.6885,0.2158,0.8086,0.2803
		c0.1914,0.0878,0.2636,0.1914,0.2636,0.3681c0,0.3194-0.2636,0.5274-0.6962,0.5274c-0.5049,0-0.7598-0.2237-0.7999-0.7119h-0.7441
		c0,0.8642,0.5527,1.3271,1.5684,1.3271c0.9121,0,1.4629-0.4551,1.4629-1.1992c0-0.2559-0.0723-0.4795-0.2149-0.6475
		c-0.1601-0.1933-0.4004-0.3056-0.9922-0.4814c-0.7763-0.2237-0.9052-0.3037-0.9052-0.584c0-0.2803,0.2578-0.4795,0.625-0.4795
		c0.416,0,0.6328,0.1914,0.6884,0.5996H144.3076z M137.2363,82.0967c0.1045,0.3672,0.1045,0.3994,0.1045,1.3271v2.4727h0.7832
		v-2.0244c0-0.3438,0.0401-0.5684,0.128-0.7364c0.1445-0.2714,0.4169-0.4316,0.7285-0.4316c0.2724,0,0.4804,0.1123,0.584,0.3281
		c0.08,0.1602,0.1044,0.3438,0.1044,0.8076v2.0567h0.7832v-2.1846c0-0.7041-0.0244-0.8721-0.1513-1.1201
		c-0.1836-0.3584-0.5918-0.583-1.0801-0.583c-0.4961,0-0.8799,0.2002-1.1445,0.6074c-0.0088-0.2402-0.0244-0.3682-0.0791-0.5195
		H137.2363z M134.6934,82.6318c0.5673,0,0.9589,0.5606,0.9589,1.3692c0,0.8076-0.3916,1.3603-0.9589,1.3603
		c-0.584,0-0.9698-0.5439-0.9698-1.3759C133.7236,83.1836,134.125,82.6318,134.6934,82.6318 M134.6934,81.9932
		c-1.0254,0-1.7764,0.8388-1.7764,1.9746c0,1.2011,0.7275,2.0322,1.7764,2.0322c1.0312,0,1.7666-0.8311,1.7666-1.999
		C136.46,82.832,135.7246,81.9932,134.6934,81.9932 M131.6523,80.4727c-0.3037,0-0.5107,0.208-0.5107,0.5117
		c0,0.2793,0.1992,0.4795,0.4951,0.4795c0.2959,0,0.4951-0.2002,0.4951-0.4883C132.1318,80.6807,131.9326,80.4727,131.6523,80.4727
		 M131.2363,85.8965h0.7989v-3.7998h-0.7989V85.8965z M129.5488,82.0967l0.0157-1.0879h-0.7598l-0.0234,1.0879h-0.5997
		l-0.0078,0.623h0.583l-0.0468,1.6817c-0.0166,0.3838-0.0166,0.3916-0.0166,0.4716c0,0.3604,0.0322,0.5196,0.1191,0.6797
		c0.1602,0.2715,0.4727,0.4229,0.8809,0.4229c0.2636,0,0.4961-0.0479,0.7675-0.1514l0.0079-0.6631
		c-0.2002,0.0879-0.3838,0.128-0.5606,0.128c-0.3115,0-0.4072-0.128-0.4072-0.5684c0-0.0635,0-0.0635,0.0078-0.3193l0.0244-1.6817
		h0.8398l0.0079-0.623H129.5488z M126.6621,84.2646c0,0.3282-0.0322,0.5362-0.1045,0.6807c-0.1289,0.2559-0.4092,0.416-0.7373,0.416
		c-0.3828,0-0.6474-0.2246-0.6474-0.5527c0-0.4561,0.3837-0.6719,1.4892-0.8408V84.2646z M125.2529,83.168
		c0.0713-0.3516,0.3116-0.5196,0.7432-0.5196c0.4805,0,0.666,0.1836,0.666,0.6719v0.1035c-0.8496,0.1524-1.0732,0.2002-1.4258,0.336
		c-0.5674,0.2158-0.8711,0.6093-0.8711,1.1377c0,0.6718,0.4961,1.0869,1.295,1.0869c0.5205,0,0.8818-0.1846,1.0898-0.5596
		c0,0.208,0.0146,0.2949,0.0625,0.4717h0.7285c-0.0957-0.2236-0.1201-0.4072-0.1201-0.9199v-1.4805
		c0-0.4805-0.0244-0.6797-0.1201-0.8965c-0.1602-0.375-0.6153-0.5908-1.2559-0.5908c-0.4648,0-0.872,0.1201-1.1367,0.335
		c-0.248,0.1923-0.3672,0.4326-0.416,0.8242H125.2529z M118.0703,82.0967c0.0879,0.2793,0.0957,0.375,0.0957,1.0312v2.7686h0.7832
		v-2.1602c0-0.2724,0.0235-0.4404,0.0957-0.6006c0.1114-0.2714,0.3838-0.4316,0.7197-0.4316c0.2647,0,0.4815,0.1035,0.5772,0.2881
		c0.0723,0.1357,0.0879,0.2402,0.0879,0.7353v2.169h0.7832v-2.1924c0-0.6719,0.2637-1,0.7998-1
		c0.2646,0,0.4658,0.0879,0.5693,0.2559c0.0801,0.1279,0.1035,0.2724,0.1035,0.6796v2.2569h0.7833v-2.2647
		c0-0.7519-0.0157-0.8554-0.1358-1.0957c-0.168-0.3349-0.5351-0.5273-1.0244-0.5273c-0.5273,0-0.8965,0.2002-1.1992,0.6396
		c-0.209-0.4394-0.5518-0.6396-1.0723-0.6396c-0.5039,0-0.8642,0.1846-1.1289,0.5996c0-0.208-0.0234-0.3682-0.0801-0.5117H118.0703z
		 M115.2695,82.0967c0.0401,0.3349,0.0489,0.4072,0.0489,1.2314v2.5684h0.791v-1.7354c0-0.4248,0.039-0.7129,0.1347-0.9287
		c0.1446-0.3359,0.3848-0.5205,0.6885-0.5205c0.1846,0,0.336,0.0479,0.5518,0.168v-0.791c-0.1602-0.0557-0.2637-0.0801-0.375-0.0801
		c-0.4326,0-0.7608,0.2803-1.041,0.8877c0.0078-0.0967,0.0078-0.1602,0.0078-0.2168c0-0.1992-0.0235-0.3994-0.0547-0.583H115.2695z
		 M112.6777,82.6318c0.5679,0,0.96,0.5606,0.96,1.3692c0,0.8076-0.3921,1.3603-0.96,1.3603c-0.5849,0-0.9687-0.5439-0.9687-1.3759
		C111.709,83.1836,112.1089,82.6318,112.6777,82.6318 M112.6777,81.9932c-1.0249,0-1.7758,0.8388-1.7758,1.9746
		c0,1.2011,0.727,2.0322,1.7758,2.0322c1.0323,0,1.7676-0.8311,1.7676-1.999C114.4453,82.832,113.71,81.9932,112.6777,81.9932
		 M108.0938,82.7773v-1.5048h2.3359v-0.712h-3.1587v5.336h0.8228v-2.4082h2.144v-0.711H108.0938z"/>
</g>
</svg>
