<svg id="Ebene_1" data-name="Ebene 1" xmlns="http://www.w3.org/2000/svg" viewBox="0 0 35.8 35.8"><path d="M297.5,439.3a17.9,17.9,0,1,1,17.9-17.9A18,18,0,0,1,297.5,439.3Zm0-33.9a16,16,0,1,0,16,16A16,16,0,0,0,297.5,405.4Z" transform="translate(-279.5 -403.5)" style="fill:#e63228"/><path d="M294.7,421.5v10.4a.2.2,0,0,0,.2.2h3.9a.2.2,0,0,0,.2-.2V421.3h2.8c.2,0,.3-.1.3-.2l.3-3.2a.3.3,0,0,0-.3-.3H299v-2.3a1,1,0,0,1,1-.9h2.2c.1,0,.2-.1.2-.3v-3.2a.2.2,0,0,0-.2-.2h-3.7a3.8,3.8,0,0,0-3.8,3.8v3.1h-2c-.1,0-.2.1-.2.3v3.2l.2.2h2Z" transform="translate(-279.5 -403.5)" style="fill:#e63228;fill-rule:evenodd"/></svg>