<svg id="Ebene_1" data-name="Ebene 1" xmlns="http://www.w3.org/2000/svg" viewBox="0 0 35.59852 35.59845"><path d="M1677.22582,2426.83131a17.79923,17.79923,0,1,1,17.79926-17.79919A17.8196,17.8196,0,0,1,1677.22582,2426.83131Zm0-33.90757a16.10838,16.10838,0,1,0,16.10838,16.10838A16.12644,16.12644,0,0,0,1677.22582,2392.92374Zm6.0017,8.88673a1.31707,1.31707,0,1,0,1.3171,1.3171A1.3171,1.3171,0,0,0,1683.22752,2401.81047Zm-5.85545,1.689a5.53268,5.53268,0,1,0,5.53261,5.53268A5.53907,5.53907,0,0,0,1677.37207,2403.49951Zm0,9.07677a3.54406,3.54406,0,1,1,3.544-3.54409A3.54814,3.54814,0,0,1,1677.37207,2412.57628Zm11.16369-8.14238a6.74828,6.74828,0,0,0-6.74848-6.74809h-8.90662a6.74827,6.74827,0,0,0-6.74848,6.74809v8.90741a6.74827,6.74827,0,0,0,6.74848,6.74809h8.90662a6.74828,6.74828,0,0,0,6.74848-6.74809Zm-2.1135,8.90741a4.63479,4.63479,0,0,1-4.635,4.63459h-8.90662a4.63479,4.63479,0,0,1-4.635-4.63459v-8.90741a4.63479,4.63479,0,0,1,4.635-4.63459h8.90662a4.63479,4.63479,0,0,1,4.635,4.63459Z" transform="translate(-1659.42656 -2391.23286)" style="fill:#353535"/></svg>