<svg id="Ebene_1" data-name="Ebene 1" xmlns="http://www.w3.org/2000/svg" viewBox="0 0 35.8 35.8"><path d="M297.5,439.3a17.9,17.9,0,1,1,17.8-17.9A17.9,17.9,0,0,1,297.5,439.3Zm0-33.9a16,16,0,1,0,15.9,16A16,16,0,0,0,297.5,405.4Z" transform="translate(-279.6 -403.5)" style="fill:#323232"/><path d="M307.6,422.8v6.6a.3.3,0,0,1-.3.3h-3.5a.3.3,0,0,1-.3-.3v-6.2c0-1.6-.6-2.7-2-2.7a2.2,2.2,0,0,0-2.1,1.5,2.5,2.5,0,0,0-.1.9v6.5a.3.3,0,0,1-.3.3h-3.5a.3.3,0,0,1-.3-.3c0-1.6.1-9.6,0-11.5a.3.3,0,0,1,.3-.3H299a.3.3,0,0,1,.3.3v1.4h0a4,4,0,0,1,3.6-2c2.7,0,4.7,1.7,4.7,5.5Zm-18.4,6.9h3.5a.3.3,0,0,0,.3-.3V417.9a.3.3,0,0,0-.3-.3h-3.5a.3.3,0,0,0-.3.3v11.5A.3.3,0,0,0,289.2,429.7Z" transform="translate(-279.6 -403.5)" style="fill:#323232"/><circle cx="11.3" cy="10.3" r="2.2" style="fill:#323232"/></svg>